<?xml version="1.0" encoding="utf-8"?>
<!-- Generator: Adobe Illustrator 16.0.3, SVG Export Plug-In . SVG Version: 6.00 Build 0)  -->
<!DOCTYPE svg PUBLIC "-//W3C//DTD SVG 1.1//EN" "http://www.w3.org/Graphics/SVG/1.1/DTD/svg11.dtd">
<svg version="1.1" xmlns="http://www.w3.org/2000/svg" xmlns:xlink="http://www.w3.org/1999/xlink" x="0px" y="0px" width="1200px"
	 height="1200px" viewBox="0 0 1200 1200" enable-background="new 0 0 1200 1200" xml:space="preserve">
<g id="bg">
	<rect fill="#7AC4D3" width="1200" height="1200"/>
</g>
<g id="character">
	<path fill="#E23D3A" d="M243.622,373.627c1.4-207.205,176.402-299.608,373.811-299.608c197.406,0,379.409,85.402,375.208,295.408
		c0,203.005-186.202,224.005-267.405,278.606c-37.802,25.201-2.745,137.206-2.745,137.206s-31.571,20.693-113.927,20.693
		c-82.356,0-121.334-20.693-121.334-20.693v-8.399c1.4-191.809,79.801-235.208,154.003-274.409
		c74.201-39.201,159.604-50.4,159.604-134.403c0-107.802-99.403-133.004-186.205-133.004c-89.603,0-112.417,50.401-113.816,138.604
		H243.622z M731.595,976.341c0,168.86-257.315,168.86-257.315,0C474.28,805.868,731.595,805.868,731.595,976.341z"/>
</g>
</svg>
