<?xml version="1.0" encoding="utf-8"?>
<!-- Generator: Adobe Illustrator 16.0.3, SVG Export Plug-In . SVG Version: 6.00 Build 0)  -->
<!DOCTYPE svg PUBLIC "-//W3C//DTD SVG 1.1//EN" "http://www.w3.org/Graphics/SVG/1.1/DTD/svg11.dtd">
<svg version="1.1" id="Layer_1" xmlns="http://www.w3.org/2000/svg" xmlns:xlink="http://www.w3.org/1999/xlink" x="0px" y="0px"
	 width="1920px" height="1080px" viewBox="0 0 1920 1080" enable-background="new 0 0 1920 1080" xml:space="preserve">
<g>
	<g>
		<polygon fill="#7AA343" points="273.548,593.827 299.703,593.827 299.703,685.248 1509.928,685.248 1509.928,593.827 
			1536.087,593.827 1536.087,551.629 1501.957,551.629 1536.087,510.279 1536.087,472.08 1501.957,472.08 1501.957,398.909 
			1536.087,398.909 1536.087,299.322 273.548,299.322 273.548,398.909 307.661,398.909 307.661,472.08 273.548,472.08 
			273.548,510.279 307.661,551.629 273.548,551.629 		"/>
		<g>
			<rect x="356.592" y="381.667" fill="#4E4C4F" width="104.598" height="192.237"/>
			<rect x="478.148" y="381.667" fill="#4E4C4F" width="104.599" height="192.237"/>
			<rect x="599.715" y="381.667" fill="#4E4C4F" width="104.598" height="192.237"/>
			<rect x="721.271" y="381.667" fill="#4E4C4F" width="104.599" height="192.237"/>
		</g>
		<g>
			<rect x="976.997" y="381.667" fill="#4E4C4F" width="104.594" height="192.237"/>
			<rect x="1098.559" y="381.667" fill="#4E4C4F" width="104.603" height="192.237"/>
			<rect x="1220.12" y="381.667" fill="#4E4C4F" width="104.594" height="192.237"/>
			<rect x="1341.691" y="381.667" fill="#4E4C4F" width="104.585" height="192.237"/>
		</g>
		<g>
			<rect x="313.725" y="637.538" fill="#EBCF6D" width="25.452" height="47.71"/>
			<rect x="348.718" y="637.538" fill="#EBCF6D" width="25.447" height="47.71"/>
			<rect x="383.706" y="637.538" fill="#EBCF6D" width="25.466" height="47.71"/>
			<rect x="418.713" y="637.538" fill="#EBCF6D" width="25.465" height="47.71"/>
			<rect x="453.719" y="637.538" fill="#EBCF6D" width="25.447" height="47.71"/>
			<rect x="488.707" y="637.538" fill="#EBCF6D" width="25.452" height="47.71"/>
			<rect x="523.7" y="637.538" fill="#EBCF6D" width="25.46" height="47.71"/>
			<rect x="558.706" y="637.538" fill="#EBCF6D" width="25.447" height="47.71"/>
			<rect x="593.708" y="637.538" fill="#EBCF6D" width="25.434" height="47.71"/>
			<rect x="628.7" y="637.538" fill="#EBCF6D" width="25.448" height="47.71"/>
			<rect x="663.689" y="637.538" fill="#EBCF6D" width="25.465" height="47.71"/>
			<rect x="698.695" y="637.538" fill="#EBCF6D" width="25.447" height="47.71"/>
			<rect x="733.701" y="637.538" fill="#EBCF6D" width="25.435" height="47.71"/>
			<rect x="768.689" y="637.538" fill="#EBCF6D" width="25.452" height="47.71"/>
			<rect x="873.678" y="637.538" fill="#EBCF6D" width="25.451" height="47.71"/>
			<rect x="908.67" y="637.538" fill="#EBCF6D" width="25.461" height="47.71"/>
			<rect x="943.672" y="637.538" fill="#EBCF6D" width="25.465" height="47.71"/>
			<rect x="978.678" y="637.538" fill="#EBCF6D" width="25.452" height="47.71"/>
			<rect x="1013.685" y="637.538" fill="#EBCF6D" width="25.434" height="47.71"/>
			<rect x="1048.673" y="637.538" fill="#EBCF6D" width="25.451" height="47.71"/>
			<rect x="1083.661" y="637.538" fill="#EBCF6D" width="25.47" height="47.71"/>
			<rect x="1118.676" y="637.538" fill="#EBCF6D" width="25.443" height="47.71"/>
			<rect x="1153.655" y="637.538" fill="#EBCF6D" width="25.461" height="47.71"/>
			<rect x="1188.653" y="637.538" fill="#EBCF6D" width="25.46" height="47.71"/>
			<rect x="1223.65" y="637.538" fill="#EBCF6D" width="25.47" height="47.71"/>
			<rect x="1258.665" y="637.538" fill="#EBCF6D" width="25.443" height="47.71"/>
			<rect x="1293.653" y="637.538" fill="#EBCF6D" width="25.452" height="47.71"/>
			<rect x="1328.643" y="637.538" fill="#EBCF6D" width="25.46" height="47.71"/>
			<rect x="1363.648" y="637.538" fill="#EBCF6D" width="25.47" height="47.71"/>
			<rect x="1398.654" y="637.538" fill="#EBCF6D" width="25.435" height="47.71"/>
			<rect x="1433.643" y="637.538" fill="#EBCF6D" width="25.452" height="47.71"/>
			<rect x="1468.632" y="637.538" fill="#EBCF6D" width="25.46" height="47.71"/>
		</g>
		<g>
			<g>
				<rect x="340.685" y="387.992" fill="#BFBFBF" width="21.582" height="12.067"/>
				<rect x="340.685" y="414.656" fill="#BFBFBF" width="21.582" height="12.076"/>
				<rect x="340.685" y="441.329" fill="#BFBFBF" width="21.582" height="12.067"/>
				<rect x="340.685" y="467.975" fill="#BFBFBF" width="21.582" height="12.067"/>
				<rect x="340.685" y="494.639" fill="#BFBFBF" width="21.582" height="12.075"/>
				<rect x="340.685" y="521.311" fill="#BFBFBF" width="21.582" height="12.076"/>
				<rect x="340.685" y="547.984" fill="#BFBFBF" width="21.582" height="12.065"/>
			</g>
			<g>
				<rect x="819.519" y="387.992" fill="#BFBFBF" width="21.581" height="12.067"/>
				<rect x="819.519" y="414.656" fill="#BFBFBF" width="21.581" height="12.076"/>
				<rect x="819.519" y="441.329" fill="#BFBFBF" width="21.581" height="12.067"/>
				<rect x="819.519" y="467.975" fill="#BFBFBF" width="21.581" height="12.067"/>
				<rect x="819.519" y="494.639" fill="#BFBFBF" width="21.581" height="12.075"/>
				<rect x="819.519" y="521.311" fill="#BFBFBF" width="21.581" height="12.076"/>
				<rect x="819.519" y="547.984" fill="#BFBFBF" width="21.581" height="12.065"/>
			</g>
			<g>
				<rect x="456.563" y="387.992" fill="#BFBFBF" width="27.288" height="12.067"/>
				<rect x="456.563" y="414.656" fill="#BFBFBF" width="27.288" height="12.076"/>
				<rect x="456.563" y="441.329" fill="#BFBFBF" width="27.288" height="12.067"/>
				<rect x="456.563" y="467.975" fill="#BFBFBF" width="27.288" height="12.067"/>
				<rect x="456.563" y="494.639" fill="#BFBFBF" width="27.288" height="12.075"/>
				<rect x="456.563" y="521.311" fill="#BFBFBF" width="27.288" height="12.076"/>
				<rect x="456.563" y="547.984" fill="#BFBFBF" width="27.288" height="12.065"/>
			</g>
			<g>
				<rect x="577.585" y="387.992" fill="#BFBFBF" width="27.292" height="12.067"/>
				<rect x="577.585" y="414.656" fill="#BFBFBF" width="27.292" height="12.076"/>
				<rect x="577.585" y="441.329" fill="#BFBFBF" width="27.292" height="12.067"/>
				<rect x="577.585" y="467.975" fill="#BFBFBF" width="27.292" height="12.067"/>
				<rect x="577.585" y="494.639" fill="#BFBFBF" width="27.292" height="12.075"/>
				<rect x="577.585" y="521.311" fill="#BFBFBF" width="27.292" height="12.076"/>
				<rect x="577.585" y="547.984" fill="#BFBFBF" width="27.292" height="12.065"/>
			</g>
			<g>
				<rect x="699.474" y="387.992" fill="#BFBFBF" width="27.301" height="12.067"/>
				<rect x="699.474" y="414.656" fill="#BFBFBF" width="27.301" height="12.076"/>
				<rect x="699.474" y="441.329" fill="#BFBFBF" width="27.301" height="12.067"/>
				<rect x="699.474" y="467.975" fill="#BFBFBF" width="27.301" height="12.067"/>
				<rect x="699.474" y="494.639" fill="#BFBFBF" width="27.301" height="12.075"/>
				<rect x="699.474" y="521.311" fill="#BFBFBF" width="27.301" height="12.076"/>
				<rect x="699.474" y="547.984" fill="#BFBFBF" width="27.301" height="12.065"/>
			</g>
		</g>
		<g>
			<g>
				<rect x="961.06" y="387.992" fill="#BFBFBF" width="21.591" height="12.067"/>
				<rect x="961.06" y="414.656" fill="#BFBFBF" width="21.591" height="12.076"/>
				<rect x="961.06" y="441.329" fill="#BFBFBF" width="21.591" height="12.067"/>
				<rect x="961.06" y="467.975" fill="#BFBFBF" width="21.591" height="12.067"/>
				<rect x="961.06" y="494.639" fill="#BFBFBF" width="21.591" height="12.075"/>
				<rect x="961.06" y="521.311" fill="#BFBFBF" width="21.591" height="12.076"/>
				<rect x="961.06" y="547.984" fill="#BFBFBF" width="21.591" height="12.065"/>
			</g>
			<g>
				<rect x="1439.88" y="387.992" fill="#BFBFBF" width="21.604" height="12.067"/>
				<rect x="1439.88" y="414.656" fill="#BFBFBF" width="21.604" height="12.076"/>
				<rect x="1439.88" y="441.329" fill="#BFBFBF" width="21.604" height="12.067"/>
				<rect x="1439.88" y="467.975" fill="#BFBFBF" width="21.604" height="12.067"/>
				<rect x="1439.88" y="494.639" fill="#BFBFBF" width="21.604" height="12.075"/>
				<rect x="1439.88" y="521.311" fill="#BFBFBF" width="21.604" height="12.076"/>
				<rect x="1439.88" y="547.984" fill="#BFBFBF" width="21.604" height="12.065"/>
			</g>
			<g>
				<rect x="1076.938" y="387.992" fill="#BFBFBF" width="27.274" height="12.067"/>
				<rect x="1076.938" y="414.656" fill="#BFBFBF" width="27.274" height="12.076"/>
				<rect x="1076.938" y="441.329" fill="#BFBFBF" width="27.274" height="12.067"/>
				<rect x="1076.938" y="467.975" fill="#BFBFBF" width="27.274" height="12.067"/>
				<rect x="1076.938" y="494.639" fill="#BFBFBF" width="27.274" height="12.075"/>
				<rect x="1076.938" y="521.311" fill="#BFBFBF" width="27.274" height="12.076"/>
				<rect x="1076.938" y="547.984" fill="#BFBFBF" width="27.274" height="12.065"/>
			</g>
			<g>
				<rect x="1197.96" y="387.992" fill="#BFBFBF" width="27.292" height="12.067"/>
				<rect x="1197.96" y="414.656" fill="#BFBFBF" width="27.292" height="12.076"/>
				<rect x="1197.96" y="441.329" fill="#BFBFBF" width="27.292" height="12.067"/>
				<rect x="1197.96" y="467.975" fill="#BFBFBF" width="27.292" height="12.067"/>
				<rect x="1197.96" y="494.639" fill="#BFBFBF" width="27.292" height="12.075"/>
				<rect x="1197.96" y="521.311" fill="#BFBFBF" width="27.292" height="12.076"/>
				<rect x="1197.96" y="547.984" fill="#BFBFBF" width="27.292" height="12.065"/>
			</g>
			<g>
				<rect x="1319.849" y="387.992" fill="#BFBFBF" width="27.301" height="12.067"/>
				<rect x="1319.849" y="414.656" fill="#BFBFBF" width="27.301" height="12.076"/>
				<rect x="1319.849" y="441.329" fill="#BFBFBF" width="27.301" height="12.067"/>
				<rect x="1319.849" y="467.975" fill="#BFBFBF" width="27.301" height="12.067"/>
				<rect x="1319.849" y="494.639" fill="#BFBFBF" width="27.301" height="12.075"/>
				<rect x="1319.849" y="521.311" fill="#BFBFBF" width="27.301" height="12.076"/>
				<rect x="1319.849" y="547.984" fill="#BFBFBF" width="27.301" height="12.065"/>
			</g>
		</g>
	</g>
</g>
</svg>
